<?xml version="1.0" encoding="utf-8"?>
<!-- Generator: Adobe Illustrator 24.3.0, SVG Export Plug-In . SVG Version: 6.00 Build 0)  -->
<svg version="1.1" id="Layer_1" xmlns="http://www.w3.org/2000/svg" xmlns:xlink="http://www.w3.org/1999/xlink" x="0px" y="0px"
	 viewBox="0 0 600 600" style="enable-background:new 0 0 600 600;" xml:space="preserve">
<style type="text/css">
	.st0{fill:none;stroke:#FFFFFF;stroke-width:20;stroke-linejoin:round;stroke-miterlimit:10;}
</style>
<g>
	<g>
		<path class="st0" d="M242.1,285.09c5.37-4.41,10.19-8.84,14.6-13.29c-19.73-19.92-30.9-40.17-43.3-60.48
			c-15.17,24.85-28.48,49.61-57.9,73.77c-27.96,23.38-72.03,46.16-114.95,48.95c64.26,45.16,141.79,62.31,216.15,51.51
			c-45.65-6.63-90.1-23.78-129.55-51.51C170.07,331.25,214.14,308.47,242.1,285.09z"/>
		<path class="st0" d="M300,305.23c10.68-6.33,20.41-13.21,28.7-20.14c5.37-4.41,10.19-8.84,14.6-13.29
			c-19.73-19.92-30.9-40.17-43.3-60.48c-12.4,20.31-23.57,40.57-43.3,60.48c4.41,4.45,9.23,8.88,14.6,13.29
			C279.59,292.03,289.32,298.91,300,305.23z"/>
		<path class="st0" d="M213.75,334.04c30.19-1.96,60.93-13.82,86.25-28.81c-10.68-6.33-20.41-13.21-28.7-20.14
			c-5.37-4.41-10.19-8.84-14.6-13.29c-4.41,4.45-9.23,8.88-14.6,13.29c-27.96,23.38-72.03,46.16-114.95,48.95
			c39.45,27.72,83.9,44.87,129.55,51.51c14.6-2.12,29.07-5.33,43.3-9.61C269.74,366.84,240.58,352.9,213.75,334.04z"/>
		<path class="st0" d="M444.5,285.09c-29.42-24.16-42.73-48.92-57.9-73.77c-12.4,20.31-23.57,40.57-43.3,60.48
			c4.41,4.45,9.23,8.88,14.6,13.29c27.96,23.38,72.03,46.16,114.95,48.95c-39.45,27.72-83.9,44.87-129.55,51.51
			c74.36,10.81,151.89-6.34,216.15-51.51C516.53,331.25,472.46,308.47,444.5,285.09z"/>
		<path class="st0" d="M357.9,285.09c-5.37-4.41-10.19-8.84-14.6-13.29c-4.41,4.45-9.23,8.88-14.6,13.29
			c-8.3,6.94-18.02,13.82-28.7,20.14c25.32,14.99,56.06,26.85,86.25,28.81c-26.83,18.86-55.99,32.79-86.25,41.89
			c14.23,4.28,28.7,7.49,43.3,9.61c45.65-6.63,90.1-23.78,129.55-51.51C429.93,331.25,385.86,308.47,357.9,285.09z"/>
		<path class="st0" d="M300,375.94c30.26-9.1,59.42-23.04,86.25-41.89c-30.19-1.96-60.93-13.82-86.25-28.81
			c-25.32,14.99-56.06,26.85-86.25,28.81C240.58,352.9,269.74,366.84,300,375.94z"/>
	</g>
</g>
</svg>
